<svg id="Illustrations" xmlns="http://www.w3.org/2000/svg" viewBox="0 0 290 150"><defs><style>.cls-1,.cls-7{fill:#fff;}.cls-2,.cls-8{fill:none;}.cls-2,.cls-3,.cls-4{stroke:#d9d9d9;}.cls-10,.cls-11,.cls-12,.cls-2,.cls-3,.cls-4,.cls-6,.cls-7,.cls-8{stroke-linecap:round;stroke-linejoin:round;stroke-width:2px;}.cls-3,.cls-6{fill:#f0f0f0;}.cls-11,.cls-4{fill:#e5e5e5;}.cls-5{fill:#d9d9d9;}.cls-10,.cls-11,.cls-12,.cls-6,.cls-7,.cls-8{stroke:#666;}.cls-9{fill:#6bb966;}.cls-10{fill:#cbcbcb;}.cls-12{fill:#3685d1;}</style></defs><title>Residential_house_deselected</title><rect class="cls-1" width="290" height="150"/><circle class="cls-2" cx="21.62" cy="142.11" r="6.89"/><circle class="cls-2" cx="48.04" cy="142.04" r="6.89"/><path class="cls-2" d="M21.62,142.2l5.89-14.72s-5-1.46-4.9,2.5"/><polyline class="cls-2" points="26.27 130.57 40.4 131.02 34.59 141.65 25.48 132.56"/><polyline class="cls-2" points="34.59 141.65 48.25 142.2 40.4 131.02 41.52 127.57"/><line class="cls-2" x1="39.61" y1="127.57" x2="44.34" y2="127.57"/><rect class="cls-3" x="198.15" y="60.53" width="4.17" height="10.09"/><line class="cls-4" x1="197.15" y1="63.76" x2="203.18" y2="63.76"/><polygon class="cls-3" points="171.58 49.73 128.79 80.07 128.79 143.93 215 143.93 215 80.07 171.58 49.73"/><polygon class="cls-4" points="171.58 54.73 215 84.6 215 80.07 171.58 49.73 128.79 80.07 135.38 80.07 171.58 54.73"/><rect class="cls-5" x="198.04" y="84.77" width="4.84" height="2.42" rx="0.66" ry="0.66"/><rect class="cls-5" x="170.49" y="77.9" width="4.84" height="2.42" rx="0.66" ry="0.66"/><rect class="cls-5" x="185.23" y="80.39" width="4.84" height="2.42" rx="0.66" ry="0.66"/><polygon class="cls-6" points="230.76 149 152.76 149 152.88 95.11 230.76 95.11 230.76 149"/><rect class="cls-7" x="152.88" y="95.11" width="77.88" height="37.49"/><rect class="cls-8" x="207.49" y="95.11" width="23.28" height="6.28"/><rect class="cls-8" x="207.49" y="101.36" width="23.28" height="6.28"/><rect class="cls-8" x="207.49" y="107.6" width="23.28" height="6.28"/><rect class="cls-8" x="207.49" y="113.85" width="23.28" height="6.28"/><rect class="cls-8" x="207.49" y="120.09" width="23.28" height="6.28"/><rect class="cls-8" x="207.49" y="126.34" width="23.28" height="6.28"/><polygon class="cls-1" points="160.88 95.11 166.15 132.61 175.99 132.61 170.72 95.11 160.88 95.11"/><polygon class="cls-9" points="263.21 104.05 256.64 142.68 270.09 142.68 263.21 104.05"/><polygon class="cls-10" points="263.21 104.05 256.64 142.68 270.09 142.68 263.21 104.05"/><line class="cls-8" x1="263.36" y1="148.68" x2="263.36" y2="139.07"/><rect class="cls-5" x="193.26" y="138.46" width="6.26" height="3.13" rx="0.66" ry="0.66"/><rect class="cls-5" x="205.14" y="142.44" width="6.26" height="3.13" rx="0.66" ry="0.66"/><polygon class="cls-10" points="232.76 94.98 152.91 94.87 152.91 90.33 232.76 90.45 232.76 94.98"/><line class="cls-7" x1="196.26" y1="95.4" x2="196.26" y2="132.14"/><line class="cls-7" x1="153.19" y1="113.88" x2="207.49" y2="113.88"/><rect class="cls-8" x="152.88" y="95.11" width="77.88" height="37.49"/><rect class="cls-10" x="148.32" y="42.3" width="10.28" height="16.28"/><rect class="cls-10" x="149.83" y="38.3" width="7.24" height="4"/><rect class="cls-11" x="148.32" y="42.3" width="10.28" height="16.28"/><rect class="cls-10" x="149.83" y="38.3" width="7.24" height="4"/><rect class="cls-10" x="149.83" y="38.3" width="7.24" height="4"/><polyline class="cls-6" points="69.88 90.03 69.88 69 177.88 69 177.88 149 69.88 149 69.88 94.03"/><polyline class="cls-8" points="69.88 90.03 69.88 69 177.88 69 177.88 149 69.88 149 69.88 94.03"/><rect class="cls-8" x="76.63" y="105.34" width="30.28" height="37"/><rect class="cls-10" x="76.63" y="105.34" width="24" height="37"/><rect class="cls-7" x="116.4" y="105.42" width="52.28" height="26.28"/><rect class="cls-10" x="116.4" y="105.42" width="52.28" height="22.15"/><line class="cls-2" x1="271.77" y1="149" x2="267.77" y2="149"/><polygon class="cls-6" points="177.76 69 69.88 69 123.37 31 177.76 69"/><polygon class="cls-12" points="123.37 36 170.76 69 177.76 69 123.37 31 69.88 69 76.77 69 123.37 36"/><rect class="cls-5" x="156.39" y="84.98" width="6.26" height="3.13" rx="0.66" ry="0.66"/><rect class="cls-5" x="159.52" y="81.85" width="6.26" height="3.13" rx="0.66" ry="0.66"/><rect class="cls-5" x="136.09" y="59.58" width="6.26" height="3.13" rx="0.66" ry="0.66"/><rect class="cls-5" x="104.92" y="78.95" width="6.26" height="3.13" rx="0.66" ry="0.66"/><rect class="cls-5" x="123.26" y="88.7" width="6.26" height="3.13" rx="0.66" ry="0.66"/><line class="cls-7" x1="35.11" y1="149" x2="289" y2="149"/><line class="cls-7" x1="1" y1="149" x2="31.11" y2="149"/><rect class="cls-7" x="77.63" y="145.61" width="30.28" height="3.28"/><rect class="cls-7" x="76.63" y="142.34" width="30.28" height="3.28"/><circle class="cls-7" cx="91.36" cy="92.78" r="2.14"/><line class="cls-7" x1="88.22" y1="94.92" x2="94.5" y2="94.92"/><rect class="cls-8" x="116.4" y="105.42" width="52.28" height="26.28"/><circle class="cls-10" cx="123.88" cy="54.02" r="5.56"/><path class="cls-10" d="M76.14,148.87a4.94,4.94,0,1,0,0-9.88,4.89,4.89,0,0,0-2.23.55,6,6,0,0,0-10.77,1.85,3.74,3.74,0,0,0,.14,7.48Z"/><path class="cls-8" d="M76.14,148.87a4.94,4.94,0,1,0,0-9.88,4.89,4.89,0,0,0-2.23.55,6,6,0,0,0-10.77,1.85,3.74,3.74,0,0,0,.14,7.48Z"/><polygon class="cls-10" points="123.37 36 170.76 69 177.76 69 123.37 31 69.88 69 76.77 69 123.37 36"/><path class="cls-10" d="M166.47,140.6a4.94,4.94,0,1,1,0-9.88,4.89,4.89,0,0,1,2.23.55,6,6,0,0,1,10.77,1.85,3.74,3.74,0,0,1-.14,7.48Z"/><path class="cls-8" d="M166.47,140.6a4.94,4.94,0,1,1,0-9.88,4.89,4.89,0,0,1,2.23.55,6,6,0,0,1,10.77,1.85,3.74,3.74,0,0,1-.14,7.48Z"/><rect class="cls-10" x="156.1" y="138.72" width="32.04" height="10.28"/><rect class="cls-8" x="156.1" y="138.72" width="32.04" height="10.28"/></svg>