<?xml version="1.0" encoding="UTF-8" standalone="no"?>
<svg
   xmlns:dc="http://purl.org/dc/elements/1.1/"
   xmlns:cc="http://creativecommons.org/ns#"
   xmlns:rdf="http://www.w3.org/1999/02/22-rdf-syntax-ns#"
   xmlns:svg="http://www.w3.org/2000/svg"
   xmlns="http://www.w3.org/2000/svg"
   id="svg8"
   version="1.1"
   viewBox="0 0 210 297"
   height="297mm"
   width="210mm">
  <defs
     id="defs2" />
  <metadata
     id="metadata5">
    <rdf:RDF>
      <cc:Work
         rdf:about="">
        <dc:format>image/svg+xml</dc:format>
        <dc:type
           rdf:resource="http://purl.org/dc/dcmitype/StillImage" />
        <dc:title></dc:title>
      </cc:Work>
    </rdf:RDF>
  </metadata>
  <g
     id="layer1">
    <g
       id="g1007">
      <path
         style="fill:#000000;stroke-width:0.26458335"
         d="m 61.292321,121.27801 c -0.68912,-0.43702 -1.69034,-0.97735 -2.22493,-1.20071 -0.53459,-0.22337 -1.19708,-0.60994 -1.47219,-0.85905 -0.54485,-0.49335 -2.72008,-1.76571 -4.81083,-2.814 -0.7276,-0.36482 -1.71722,-1.02462 -2.19914,-1.46622 -0.48192,-0.44161 -0.95817,-0.80193 -1.05833,-0.80072 -0.10016,0.001 -0.97603,-0.84833 -1.94638,-1.88785 -2.51109,-2.69011 -3.50538,-5.0361 -3.51811,-8.30081 -0.008,-2.12826 0.0979,-2.66471 0.99965,-5.049353 0.61407,-1.623902 1.36281,-3.073592 1.91315,-3.704172 0.49732,-0.56983 0.90853,-1.15512 0.9138,-1.30065 0.005,-0.14552 0.77377,-0.90954 1.70779,-1.69784 0.93402,-0.7883 1.94759,-1.77057 2.25238,-2.18282 0.30479,-0.41224 0.71074,-0.74953 0.90211,-0.74953 0.19137,0 0.57476,-0.2508 0.85197,-0.55733 0.76764,-0.8488 2.4612,-1.62353 3.16365,-1.44723 0.39348,0.0988 0.73417,0.48641 0.94858,1.07933 0.18401,0.50887 0.42168,0.92523 0.52816,0.92523 0.10648,0 0.27418,0.25385 0.37265,0.56412 0.10192,0.32113 0.25321,0.44413 0.35121,0.28556 0.0947,-0.15321 0.48049,-0.35595 0.85733,-0.45053 0.70041,-0.17579 1.57982,0.40126 4.12949,2.7097 0.52237,0.47294 1.08032,0.86326 1.2399,0.86739 0.15958,0.004 0.82161,0.48038 1.47118,1.05834 0.64957,0.57795 1.27984,1.05082 1.40059,1.05082 0.12075,0 0.69886,0.44649 1.28468,0.99219 0.58583,0.5457 1.56291,1.254942 2.17129,1.576082 2.70282,1.4267 6.10457,2.987983 6.51026,2.987983 0.24375,0 0.55629,0.11022 0.69454,0.24494 0.13824,0.13471 1.14432,0.37748 2.23573,0.53948 1.09141,0.16201 2.81781,0.41652 3.83646,0.5656 2.34256,0.34281 11.42246,0.33056 14.55607,-0.0197 5.561289,-0.62153 8.583629,-1.07479 10.447049,-1.56672 1.09141,-0.28813 2.52016,-0.66505 3.175,-0.837623 0.65485,-0.17256 2.18877,-0.67132 3.40873,-1.10835 1.21995,-0.43703 2.76777,-0.94528 3.43958,-1.12943 1.06296,-0.291382 3.30037,-1.248392 4.52878,-1.937102 0.21828,-0.12239 1.05172,-0.55652 1.85208,-0.96476 0.80037,-0.40823 1.64318,-0.90358 1.87292,-1.10077 0.22974,-0.19719 0.60032,-0.35853 0.82351,-0.35853 0.2232,0 0.85527,-0.35718 1.40461,-0.79374 0.54935,-0.43656 1.11633,-0.79375 1.25997,-0.79375 0.32858,1e-5 2.84108,-2.57499 2.84108,-2.91174 0,-0.13701 0.25554,-0.81783 0.56788,-1.51295 0.87382,-1.94474 0.96789,-2.22092 1.26846,-3.72426 0.52995,-2.65065 0.25944,-6.86418 -0.56397,-8.78438 -0.15601,-0.3638 -0.50611,-1.09439 -0.77801,-1.62352 -0.2719,-0.52914 -0.49436,-1.10946 -0.49436,-1.28959 0,-0.18014 -0.47559,-1.27771 -1.05685,-2.43904 -1.07806,-2.15389 -1.1267,-2.58535 -0.29146,-2.58535 0.96939,0 2.95593,3.46362 3.61391,6.301 1.57835,6.80632 1.66904,7.88436 0.93898,11.1615 -0.90839,4.07758 -2.29726,6.38944 -5.13036,8.53974 -0.42636,0.32362 -1.30582,1.03486 -1.95435,1.58057 -0.64853,0.5457 -1.29799,0.99218 -1.44325,0.99218 -0.14527,0 -1.23936,0.46428 -2.43131,1.03173 -1.19195,0.56745 -3.08564,1.229462 -4.20819,1.471142 -1.12255,0.24167 -2.78223,0.72989 -3.68819,1.08494 -0.90595,0.35504 -1.88815,0.64553 -2.18265,0.64553 -0.29451,0 -2.02811,0.461303 -3.85244,1.025123 -1.82433,0.56382 -4.09088,1.16107 -5.03676,1.32722 -0.94589,0.16615 -2.25558,0.412 -2.91042,0.54633 -5.011459,1.028 -5.963009,1.12465 -12.303129,1.24962 -6.87546,0.13552 -11.92946,-0.217 -13.75833,-0.95965 -0.29104,-0.11818 -1.06495,-0.41502 -1.71979,-0.65964 -0.65485,-0.24462 -2.14313,-0.91565 -3.30729,-1.49117 -1.16417,-0.57552 -2.2186,-1.044483 -2.34318,-1.042123 -0.12458,0.002 -0.67962,-0.35459 -1.23343,-0.79322 -0.55381,-0.43862 -1.40438,-0.96796 -1.89016,-1.1763 -0.48578,-0.20834 -1.35135,-0.801972 -1.92348,-1.319172 -0.57214,-0.5172 -1.11391,-0.94036 -1.20394,-0.94036 -0.09,0 -0.83062,-0.64597 -1.64576,-1.43549 -0.81513,-0.78951 -1.99976,-1.75981 -2.63251,-2.15621 -0.63276,-0.3964 -1.23328,-0.84831 -1.33451,-1.00424 -0.40439,-0.62293 -0.48924,0.10143 -0.10004,0.85406 0.55713,1.07737 0.52595,1.62522 -0.0925,1.62522 -0.27987,0 -0.84542,0.27981 -1.25677,0.6218 -0.41134,0.34199 -1.34321,0.9483 -2.07082,1.34737 -0.7276,0.39906 -1.62057,0.99767 -1.98437,1.33024 -0.3638,0.33257 -0.95912,0.75602 -1.32292,0.940992 -1.23767,0.62929 -3.5511,3.700923 -4.41666,5.864153 -0.7949,1.98665 -0.14982,4.69163 1.6255,6.81618 0.9798,1.17254 5.12125,5.23831 6.08312,5.97197 0.51818,0.39523 1.71689,1.47825 2.6638,2.4067 0.94691,0.92845 1.86948,1.68987 2.05014,1.69203 0.40742,0.005 2.5517,1.82449 2.16621,1.83822 -0.15341,0.005 -0.84275,-0.34764 -1.53187,-0.78467 z m -6.36964,-29.897065 c 0.20638,0 0.37523,-0.11906 0.37523,-0.26458 0,-0.43068 -0.96347,-0.30155 -1.35666,0.18183 -0.31966,0.39297 -0.30511,0.42464 0.12153,0.26458 0.26657,-0.10001 0.65352,-0.18183 0.8599,-0.18183 z m 21.14503,24.713615 c -0.43657,-0.0611 -1.27,-0.23476 -1.85209,-0.38599 -1.05701,-0.27462 -1.26653,-0.35275 -3.08269,-1.14961 -0.53132,-0.23312 -1.04584,-0.42385 -1.14338,-0.42385 -0.0975,0 -0.34531,-0.16796 -0.5506,-0.37325 -0.20529,-0.20529 -0.46468,-0.41365 -0.57641,-0.46302 -0.11174,-0.0494 -0.64965,-0.59613 -1.19535,-1.21501 -1.13026,-1.28182 -1.31192,-2.52233 -0.51373,-3.50805 0.63152,-0.7799 2.79911,-1.58394 4.27081,-1.58421 1.58824,-2.6e-4 1.07822,0.49043 -0.73263,0.7049 -1.24715,0.1477 -2.18851,0.68205 -1.83115,1.03942 0.0793,0.0793 0.60232,0.0239 1.16219,-0.12307 0.55987,-0.14702 1.58123,-0.40824 2.26969,-0.58049 1.39907,-0.35004 2.25808,-1.04097 1.29419,-1.04097 -0.74807,0 -0.70888,-0.22328 0.23219,-1.32292 0.43588,-0.50932 0.79279,-0.99622 0.79313,-1.08201 0.001,-0.35345 1.43317,-0.77007 2.64645,-0.77007 2.67892,0 3.60055,1.11217 3.35442,4.04796 -0.1505,1.79524 -0.12742,1.89453 0.64497,2.77424 1.71362,1.9517 1.89453,3.16335 0.69379,4.64673 -0.57074,0.70509 -0.75317,0.75865 -2.84991,0.83681 -1.23208,0.0459 -2.59733,0.0335 -3.03389,-0.0275 z m 0.24294,-10.58672 c 0.23018,-0.0883 0.41852,-0.33518 0.41852,-0.54856 0,-0.54289 -0.89878,-0.32083 -1.00855,0.24918 -0.0971,0.50433 -0.0312,0.53778 0.59003,0.29938 z m 53.350189,4.68034 c -1.07805,-0.57412 -1.29397,-1.03185 -1.3208,-2.79994 -0.0238,-1.5691 -0.4525,-3.2513 -0.95716,-3.75596 -0.4685,-0.46851 -0.75332,-2.00395 -0.5339,-2.87819 0.13135,-0.52333 0.57291,-0.866383 1.87539,-1.456953 2.70754,-1.22765 3.29406,-1.09278 5.55777,1.278073 0.59051,0.61847 1.21492,1.12448 1.38758,1.12448 0.17265,0 0.51215,0.30254 0.75443,0.6723 0.24227,0.36977 0.9389,0.96439 1.54806,1.32138 2.00885,1.17726 2.20501,2.59569 0.57757,4.17639 -1.70375,1.65482 -2.17001,1.90513 -4.40603,2.36534 -2.77602,0.57136 -3.33286,0.56553 -4.48291,-0.0469 z m 0.77874,-10.208283 c 0.27785,-0.33478 0.22589,-0.39687 -0.33208,-0.39687 -0.3638,0 -0.80967,0.17859 -0.99083,0.39687 -0.27784,0.334783 -0.22588,0.396883 0.33208,0.396883 0.3638,0 0.80968,-0.1786 0.99083,-0.396883 z m -40.734919,0.889343 c -1.75101,-0.29027 -2.75663,-1.102813 -2.5732,-2.079143 0.0684,-0.36426 0.49392,-1.614782 0.94552,-2.778952 0.81941,-2.11231 0.8211,-2.12744 0.82206,-7.35957 0.001,-6.58329 0.0604,-6.71604 3.63898,-8.1643 0.47294,-0.1914 0.8599,-0.438 0.8599,-0.548 0,-0.11 0.13083,-0.19999 0.29074,-0.19999 0.15991,0 0.66592,-0.16683 1.12448,-0.37073 2.79502,-1.24284 4.02211,-1.24028 6.959149,0.0145 0.45855,0.19591 0.96168,0.3562 1.11807,0.3562 0.15639,0 0.67418,0.23768 1.15064,0.52818 0.47646,0.2905 1.06155,0.52862 1.30021,0.52917 0.81053,0.002 3.57783,2.27587 3.91332,3.21576 0.90262,2.52874 1.32953,7.7212 0.7783,9.46643 -0.95582,3.0262 -3.32755,5.914262 -5.07245,6.176752 -0.46576,0.0701 -1.9184,0.30879 -3.22808,0.530513 -2.952759,0.49986 -7.833959,0.99475 -9.404909,0.95351 -0.64814,-0.017 -1.82837,-0.13867 -2.62273,-0.27035 z m 6.73597,-20.843655 c 0.58209,-0.17958 1.22708,-0.38089 1.43331,-0.44737 0.26794,-0.0864 0.29361,-0.20223 0.0899,-0.40593 -0.34075,-0.34075 -2.71677,0.3655 -3.81303,1.13339 -0.38626,0.27057 -0.81669,0.49194 -0.9565,0.49194 -0.36828,0 -1.64849,1.05098 -1.64849,1.35332 0,0.14112 0.86321,-0.20589 1.91823,-0.77114 1.05503,-0.56525 2.39448,-1.17464 2.97657,-1.35421 z m -19.1823,18.492662 c -0.21828,-0.14461 -1.05172,-0.45627 -1.85208,-0.69259 -1.7476,-0.516002 -6.26021,-2.919712 -7.31166,-3.894672 -0.414,-0.38388 -0.87549,-0.69796 -1.02554,-0.69796 -0.15005,0 -0.55663,-0.51954 -0.90351,-1.15454 -0.70144,-1.28405 -0.66624,-2.81474 0.0984,-4.2812 0.22427,-0.43008 0.40849,-0.9162 0.40939,-1.08026 0.004,-0.67036 3.88532,-4.22043 5.53209,-5.05952 2.43044,-1.23838 3.6095,-1.18069 6.7586,0.33073 1.36439,0.65485 2.59187,1.19063 2.72773,1.19063 0.42821,0 1.12279,0.94437 1.12279,1.52657 0,0.30738 0.11906,0.63245 0.26459,0.72239 0.15654,0.0968 0.26458,1.71733 0.26458,3.96875 0,2.25141 -0.10804,3.87199 -0.26458,3.96874 -0.14553,0.0899 -0.26459,0.3798 -0.26459,0.64415 0,0.80464 -1.21487,3.27994 -1.98881,4.052202 -0.58638,0.58511 -0.96824,0.72681 -1.94987,0.72356 -0.67138,-0.002 -1.39929,-0.12237 -1.61757,-0.26698 z m -3.18989,-15.985762 c 1.13374,-0.40141 1.37254,-0.94112 0.41642,-0.94112 -0.78735,0 -1.56842,0.36319 -2.35298,1.09412 -0.29127,0.27136 -0.67114,0.49338 -0.84417,0.49338 -0.17302,0 -0.46775,0.18455 -0.65495,0.41011 -0.26215,0.31588 -0.0112,0.27867 1.09208,-0.16188 0.78785,-0.3146 1.84247,-0.71718 2.3436,-0.89461 z m 41.651049,12.0896 c -0.43822,-0.64617 -0.49143,-1.26066 -0.47538,-5.4901 0.0157,-4.13488 0.0884,-4.93683 0.5516,-6.08541 0.54212,-1.34424 1.91293,-3.38825 3.46069,-5.16024 l 0.85536,-0.97927 3.06863,-0.18346 c 4.06181,-0.24284 7.22485,0.0171 8.01737,0.65882 0.70802,0.57332 1.62307,2.90257 1.62307,4.13151 0,1.13289 -1.10963,3.56316 -1.81826,3.98227 -0.30964,0.18314 -0.56299,0.4692 -0.56299,0.63569 0,0.25843 -1.63356,1.89492 -3.91934,3.92636 -0.61694,0.54829 -4.74113,3.17477 -4.98514,3.17477 -0.0722,0 -0.94677,0.47625 -1.94343,1.05833 -2.18265,1.27473 -3.17451,1.35945 -3.87218,0.33073 z m 6.14523,-16.33515 c 0.71723,-0.21758 2.48359,-0.41244 3.94466,-0.43517 l 2.64583,-0.0412 -2.91042,-0.22534 c -3.69541,-0.28612 -5.42396,-0.0109 -5.42396,0.86348 0,0.31704 0.23826,0.29493 1.74389,-0.16182 z m -61.936599,7.12082 c -0.45978,-0.34765 -0.52768,-0.70214 -0.51787,-2.70356 0.008,-1.64732 0.13996,-2.54466 0.46302,-3.15021 0.24845,-0.46572 0.45173,-1.04177 0.45173,-1.28013 0,-0.88842 1.59264,-3.83138 2.64049,-4.87923 1.67313,-1.67313 3.30735,-2.06117 4.55324,-1.08115 0.93191,0.73303 2.06668,3.06089 2.06668,4.23954 0,0.97267 -0.80033,2.39252 -1.3486,2.39252 -0.58034,0 -3.6858,2.20657 -4.02652,2.86102 -0.20355,0.39097 -0.70344,1.36569 -1.11088,2.16606 -0.40743,0.80036 -0.87093,1.54268 -1.03,1.64959 -0.47848,0.32161 -1.57796,0.21149 -2.14129,-0.21445 z m 5.68854,-12.3139 c 0,-0.12856 -0.29765,-0.23374 -0.66145,-0.23374 -0.38163,0 -0.66146,0.15237 -0.66146,0.36018 0,0.24153 0.21791,0.31853 0.66146,0.23374 0.3638,-0.0695 0.66145,-0.23163 0.66145,-0.36018 z m 16.93334,4.80199 c -0.57545,-0.32597 -3.15382,-1.06698 -3.71262,-1.06698 -0.70099,0 -2.66925,-0.94013 -3.43595,-1.64116 -0.64728,-0.59184 -1.58268,-2.92873 -1.58268,-3.95397 0,-0.83977 0.77182,-2.42062 1.53322,-3.14036 1.25889,-1.19002 3.60729,-3.08888 4.20407,-3.39931 0.81689,-0.42492 7.13865,-0.37866 9.87313,0.0722 4.2542,0.70151 4.6302,1.11319 4.6302,5.06941 0,3.22474 0.0467,3.15304 -3.20439,4.91675 -0.71144,0.38595 -1.63895,1.00052 -2.06114,1.36572 -1.86583,1.61396 -4.97177,2.49824 -6.24384,1.77766 z m -0.52917,-12.17989 c 0.65485,-0.18063 1.30969,-0.36409 1.45521,-0.4077 0.14552,-0.0436 -0.52303,-0.0887 -1.48567,-0.10017 -1.39108,-0.0166 -1.89332,0.0916 -2.4474,0.52748 -0.99677,0.78407 -0.8604,1.09459 0.29505,0.67182 0.5457,-0.19966 1.52797,-0.51081 2.18281,-0.69143 z m 26.590629,10.15623 c -0.29104,-0.0709 -0.76729,-0.22703 -1.05833,-0.34693 -1.6401,-0.67567 -2.04644,-0.81306 -2.40474,-0.81306 -0.2175,0 -1.14768,-0.35169 -2.06706,-0.78153 -1.22086,-0.57081 -1.74756,-0.98102 -1.95335,-1.52136 -0.57514,-1.51013 -0.91396,-3.62259 -0.94808,-5.91095 -0.0341,-2.28503 -0.0117,-2.37767 0.76181,-3.15366 1.17438,-1.17816 3.44926,-1.72465 5.68537,-1.36578 0.94589,0.1518 2.43545,0.34884 3.31013,0.43786 1.22214,0.12438 1.86976,0.36463 2.79723,1.03769 1.0714,0.77752 1.31614,1.16126 2.17998,3.41813 1.46714,3.83306 1.3456,4.41849 -1.48584,7.15653 -1.71407,1.65752 -2.00606,1.83716 -3.09044,1.90123 -0.65863,0.0389 -1.43564,0.0127 -1.72668,-0.0582 z m -4.1666,-12.54955 c 0.88153,-0.22357 1.2685,-0.42936 1.05833,-0.5628 -0.54877,-0.34843 -1.89528,-0.24514 -2.5214,0.19341 -0.62556,0.43816 -0.81222,1.05097 -0.25731,0.84474 0.1819,-0.0676 0.95607,-0.28151 1.72038,-0.47535 z m 36.54822,10.9536 c -0.53886,-0.62077 -2.61599,-4.20893 -2.61599,-4.51902 0,-0.12784 -0.37575,-0.74337 -0.83499,-1.36784 -0.58923,-0.80122 -0.87246,-1.52543 -0.96232,-2.46057 -0.12235,-1.27331 -0.0859,-1.36292 0.93114,-2.29016 0.58217,-0.53074 1.7545,-1.44124 2.6052,-2.02332 0.8507,-0.58208 2.49509,-1.97607 3.6542,-3.09775 2.7075,-2.62006 5.33524,-3.99177 7.70909,-4.02422 1.30333,-0.0178 1.92871,0.14252 3.43958,0.88186 4.37678,2.14176 5.79934,4.47156 4.32886,7.08963 -0.77199,1.37446 -3.27935,3.79243 -6.58326,6.34856 -1.52797,1.18214 -3.20747,2.53112 -3.73222,2.99773 -0.94187,0.8375 -3.25291,2.10019 -3.85251,2.10489 -0.16977,10e-4 -0.3552,0.14199 -0.41206,0.31258 -0.0574,0.17221 -0.80302,0.36077 -1.67635,0.42394 -1.29308,0.0935 -1.64864,0.0266 -1.99837,-0.37631 z m 13.78817,-12.39633 c 0,-0.21828 -0.14287,-0.39687 -0.3175,-0.39687 -0.24694,0 -0.24694,-0.0706 0,-0.3175 0.17463,-0.17463 0.3175,-0.86695 0.3175,-1.5385 0,-1.14636 -0.0595,-1.24938 -0.97396,-1.68545 -0.91992,-0.43867 -1.02929,-0.4395 -1.97084,-0.0149 -1.0501,0.47353 -1.49597,1.42764 -1.16074,2.48386 0.15274,0.48123 1.4181,1.02994 2.51804,1.09192 0.27174,0.0153 0.2926,0.0644 0.0661,0.15582 -0.65382,0.26382 -0.31243,0.61852 0.59531,0.61852 0.64676,0 0.92604,-0.11969 0.92604,-0.39687 z m -5.68854,-5.63286 c 0.58208,-0.2827 1.23693,-0.58008 1.45521,-0.66083 0.21828,-0.0807 -0.035,-0.15622 -0.56292,-0.16771 -0.55278,-0.012 -1.09946,0.14741 -1.28916,0.37598 -0.18116,0.21829 -0.47494,0.39688 -0.65285,0.39688 -0.17791,0 -0.54459,0.24433 -0.81484,0.54295 -0.48512,0.53605 -0.48312,0.53967 0.15743,0.28485 0.35684,-0.14196 1.12505,-0.48941 1.70713,-0.77212 z m -25.7737,15.50233 c -0.64209,-0.14317 -1.3352,-0.42808 -1.54025,-0.63312 -0.20504,-0.20504 -0.48944,-0.37281 -0.63199,-0.37281 -0.3303,0 -1.0501,-1.66822 -1.31287,-3.0427 -0.11128,-0.58209 -0.33828,-1.53459 -0.50445,-2.11667 -1.051,-3.68155 -1.04616,-4.85618 0.025,-6.07621 1.40701,-1.60249 2.88323,-1.20498 5.61096,1.51088 1.84587,1.83785 3.17361,3.55934 3.62316,4.69762 0.20115,0.50932 0.43865,0.98557 0.52778,1.05833 0.40045,0.32692 1.3232,2.71634 1.3232,3.4264 0,0.46818 -0.23428,1.00458 -0.57906,1.32579 -0.5001,0.46592 -0.90596,0.53562 -2.97656,0.51114 -1.31863,-0.0156 -2.92286,-0.14547 -3.56495,-0.28865 z m -2.27213,-11.58926 c 0.0899,-0.14552 0.0374,-0.26458 -0.11668,-0.26458 -0.15411,0 -0.2802,0.11906 -0.2802,0.26458 0,0.14552 0.0525,0.26458 0.11668,0.26458 0.0642,0 0.19026,-0.11906 0.2802,-0.26458 z m -53.842199,7.27667 c -0.2698,-0.32509 -0.2014,-0.56336 0.38088,-1.32677 1.89243,-2.4811 3.89079,-3.99915 6.79436,-5.16132 1.09512,-0.43832 1.28137,-0.44821 1.78593,-0.0948 0.7091,0.49667 0.70953,0.94273 0.002,2.02191 -0.70806,1.0799 -3.92447,3.57857 -5.61487,4.36192 -1.48225,0.68689 -2.87467,0.76967 -3.34824,0.19906 z m 19.13479,-6.99031 c -2.14628,-0.1228 -2.84099,-0.26473 -3.4229,-0.69933 -1.69482,-1.26579 -1.24177,-3.1991 0.84738,-3.61607 0.56926,-0.11361 1.27313,-0.31087 1.56417,-0.43834 0.86976,-0.38096 5.3828,-1.31788 8.01367,-1.66367 2.83253,-0.3723 5.56567,-0.0535 6.45699,0.75311 0.434749,0.39345 0.512639,0.72711 0.422749,1.81105 -0.14898,1.79653 -1.418699,3.36338 -3.105219,3.8319 -0.98456,0.27351 -6.18916,0.28382 -10.77684,0.0213 z m -0.59087,-3.60198 c 1.60917,-0.56775 4.39828,-1.15096 7.62585,-1.59459 1.51506,-0.20824 2.82475,-0.45016 2.91043,-0.53759 0.28901,-0.29496 -5.12038,0.0962 -6.98801,0.50531 -4.16092,0.91146 -5.3045,1.31861 -5.01578,1.78577 0.192,0.31067 0.11209,0.31932 1.46751,-0.1589 z m 21.750199,1.55057 c -1.3105,-0.13698 -2.84589,-1.48176 -3.12079,-2.73338 -0.22303,-1.01545 -0.0489,-1.25511 1.13577,-1.56296 1.8066,-0.46947 9.55304,0.84375 10.27959,1.74266 0.4454,0.55107 0.13829,1.34084 -0.774,1.99045 -0.68739,0.48946 -1.2099,0.58017 -3.60589,0.62596 -1.54112,0.0295 -3.30272,0.001 -3.91468,-0.0627 z m -0.21026,-3.52662 c 0.0931,-0.15065 -0.13475,-0.26458 -0.52916,-0.26458 -0.39442,0 -0.62228,0.11393 -0.52917,0.26458 0.0899,0.14552 0.32806,0.26459 0.52917,0.26459 0.2011,0 0.43922,-0.11907 0.52916,-0.26459 z"
         id="path985" />
      <ellipse
         style="opacity:1;fill:none;fill-opacity:1;stroke:none;stroke-width:0.29509434;stroke-opacity:1"
         id="path1003"
         cx="101.86459"
         cy="81.553566"
         rx="66.319565"
         ry="62.72879" />
    </g>
  </g>
</svg>
