<svg width="48px" height="48px" id="Icons" xmlns="http://www.w3.org/2000/svg" viewBox="0 0 48 48"><defs><style>.cls-1,.cls-5{fill:#9bc2e8;}.cls-2,.cls-3,.cls-4{fill:none;}.cls-2,.cls-3,.cls-4,.cls-5{stroke:#0467c6;stroke-linejoin:round;stroke-width:2px;}.cls-2,.cls-3{stroke-linecap:round;}.cls-3{stroke-dasharray:2.57 3.29;}</style></defs><title>Shipping_Destination</title><path class="cls-1" d="M9,1A6.87,6.87,0,0,0,2.14,7.89C2.14,14.28,9,22.42,9,22.42s6.86-8.29,6.86-14.54A6.87,6.87,0,0,0,9,1ZM9,11.28a2.63,2.63,0,1,1,2.63-2.63A2.63,2.63,0,0,1,9,11.28Z"/><line class="cls-2" x1="18.26" y1="14.47" x2="19.51" y2="14.47"/><path class="cls-3" d="M22.79,14.47h4a4.94,4.94,0,1,1,0,9.89H18a4.94,4.94,0,0,0-4.94,4.94v.42A4.94,4.94,0,0,0,18,34.67h6.85"/><line class="cls-2" x1="26.51" y1="34.67" x2="27.76" y2="34.67"/><path class="cls-4" d="M45.86,32.46C45.86,38.71,39,47,39,47s-6.86-8.14-6.86-14.54a6.86,6.86,0,1,1,13.72,0Z"/><circle class="cls-5" cx="39" cy="33.23" r="2.63"/><path class="cls-4" d="M15.86,7.89C15.86,14.13,9,22.42,9,22.42S2.14,14.28,2.14,7.89a6.86,6.86,0,1,1,13.72,0Z"/><circle class="cls-4" cx="9" cy="8.65" r="2.63"/></svg>